<svg width="1600" height="482" viewBox="0 0 1600 482" fill="none" xmlns="http://www.w3.org/2000/svg">
<g clip-path="url(#clip0_1_2)">
<path opacity="0.15" d="M1667.48 384.733C1680.56 394.355 1693.98 400.517 1694 411.102C1694.02 422.251 1679.16 431.022 1668.5 436.453C1623.22 459.501 1479.6 510.888 1446.12 457.743C1440.19 448.333 1440.04 439.331 1440 424.277C1439.8 354.857 1481.42 262.778 1534.87 261.03C1566.64 259.984 1594.59 291.127 1610.35 308.688C1638.95 340.553 1634.74 360.658 1667.48 384.733Z" fill="#3A30BA"/>
<path d="M1556.72 214.881C1535.42 227.094 1513.79 241.034 1503.66 265.234C1496.74 282.177 1497.35 301.307 1505.39 319.074C1514.87 340.004 1533.49 357.036 1555.21 364.64C1584.61 374.826 1617.62 367.529 1637.34 346.462L1637.38 346.421C1639.9 343.822 1642.3 341.078 1644.69 338.035C1654.76 325.37 1666.16 311.018 1666.16 292.541C1666.26 254.652 1642.42 222.364 1606.84 212.193C1603.32 211.184 1599.7 210.401 1596.07 209.869C1579.92 207.487 1567.04 209.126 1556.72 214.881ZM1582.26 375.004C1572.44 375.004 1562.65 373.365 1553.28 370.12C1530.08 362 1510.19 343.814 1500.07 321.463C1495.86 312.172 1493.51 302.567 1493.07 292.929C1492.61 282.645 1494.35 272.579 1498.26 263.022C1503.17 251.294 1510.88 240.986 1521.85 231.477C1531.75 222.889 1543.06 216.003 1553.82 209.836L1553.85 209.82C1565.35 203.411 1579.44 201.547 1596.93 204.121C1600.8 204.695 1604.68 205.526 1608.45 206.608C1626.97 211.895 1642.84 222.881 1654.36 238.363C1665.95 253.949 1672.05 272.684 1672 292.541C1672 313.044 1659.93 328.227 1649.28 341.635C1646.77 344.815 1644.26 347.697 1641.6 350.441C1630.94 361.822 1616.75 369.644 1600.57 373.083C1594.53 374.366 1588.39 375.004 1582.26 375.004Z" fill="#8C3BFC"/>
<path opacity="0.15" d="M70.6791 198.002C22.2153 187.56 6.51936 131.489 2.31465 88.8676C-2.44731 40.6451 47.7137 3.07586 93.6699 0.271057C111.038 -0.852557 127.848 1.67344 145.224 5.87221C164.28 10.3582 173.247 27.4659 184.231 41.4562C185.903 43.8217 187.474 46.2632 188.943 48.7639C194.811 58.8004 199.015 69.9266 201.16 81.771C201.7 84.7279 202.106 87.7355 202.384 90.7769C206.31 128.405 191.459 168.213 157.838 189.241C133.454 204.101 105.718 203.544 79.3925 199.683C76.5387 199.269 73.6596 198.711 70.6791 198.002Z" fill="#3A30BA"/>
<path d="M-9.42762 160.534C-10.6045 160.534 -11.8575 160.685 -13.1953 161.022C-23.6008 163.66 -34.2264 176.72 -39.6451 193.531C-44.6065 208.925 -43.9123 222.963 -37.8163 230.151C-31.9828 237.044 -23.0674 235.653 -1.66367 231.55C14.8548 228.39 37.4777 224.059 68.8044 223.191C93.1883 222.508 110.697 224.303 123.491 225.609C142.007 227.497 151.304 228.449 160.744 220.537C174.502 209.01 177.118 188.804 176.89 173.881C176.619 156.278 172.165 135.719 164.977 118.891C157.298 100.918 144.361 82.2207 130.357 68.8651C114.973 54.1951 100.334 47.7827 89.1243 50.8077C71.4968 55.577 63.2588 83.3161 55.2832 110.145C51.0668 124.335 47.0874 137.741 41.7026 148.366C35.3187 160.947 27.7411 167.586 18.5293 168.665C11.4851 169.491 6.26115 166.719 1.65528 164.267C-2.05312 162.295 -5.37209 160.534 -9.42762 160.534ZM-25.438 241.004C-32.6516 241.004 -38.138 239.192 -42.4814 234.061C-46.393 229.443 -48.6367 222.786 -48.9584 214.807C-49.2463 207.687 -48.0356 199.69 -45.4533 191.677C-42.6339 182.939 -38.4683 174.951 -33.3883 168.555C-27.7495 161.452 -21.2809 156.809 -14.7023 155.141C-6.48967 153.06 -0.639151 156.169 4.52552 158.916C8.89432 161.233 12.6704 163.247 17.8182 162.64C24.9386 161.806 30.7976 156.396 36.2586 145.636C41.3978 135.491 45.301 122.346 49.4412 108.426C57.8824 80.0046 66.6115 50.6055 87.5326 44.9515C94.67 43.0304 102.654 44.0331 111.256 47.9344C118.809 51.3639 126.657 56.9336 134.573 64.4919C149.145 78.3783 162.607 97.826 170.591 116.515C178.067 134.033 182.706 155.444 182.986 173.788C183.341 197.07 177.008 214.841 164.672 225.179C153.259 234.743 141.812 233.58 122.864 231.642C110.24 230.353 92.9597 228.584 68.9737 229.249C38.1466 230.109 15.8031 234.389 -0.51215 237.515C-10.5959 239.445 -18.7578 241.004 -25.438 241.004Z" fill="#27A6FE"/>
</g>
<defs>
<clipPath id="clip0_1_2">
<rect width="1600" height="482" fill="white"/>
</clipPath>
</defs>
</svg>
