<?xml version="1.0" encoding="UTF-8"?>
<svg width="879px" height="273px" viewBox="0 0 879 273" version="1.1" xmlns="http://www.w3.org/2000/svg" xmlns:xlink="http://www.w3.org/1999/xlink">
    <!-- Generator: Sketch 59.1 (86144) - https://sketch.com -->
    <title>one_color (1) copy</title>
    <desc>Created with Sketch.</desc>
    <g id="Page-1" stroke="none" stroke-width="1" fill="none" fill-rule="evenodd">
        <g id="Artboard" transform="translate(-32.000000, -32.000000)" fill="#FFFFFF" fill-rule="nonzero">
            <g id="one_color-(1)-copy" transform="translate(11.000000, 11.000000)">
                <g id="Group" transform="translate(259.000000, 21.000000)">
                    <g>
                        <path d="M104.7,68 C134.2,68 159.1,77.6 179.4,96.9 C199.7,116.1 209.8,140.4 209.8,169.6 C209.8,198.6 199.5,223 179,242.7 C158.7,262.2 134,272 104.7,272 C75.5,272 50.7,262.3 30.4,242.7 C10.1,223.2 0,198.8 0,169.6 C0,140.3 10.1,116.1 30.4,96.9 C50.9,77.6 75.7,68 104.7,68 Z M104.7,239.6 C123.4,239.6 139.2,233.1 152,220 C165.1,206.7 171.6,189.9 171.6,169.6 C171.6,149.6 165.1,133 152,120 C139.2,106.8 123.4,100.3 104.7,100.3 C86.2,100.3 70.4,106.8 57.4,119.9 C44.4,133 37.7,149.6 37.7,169.6 C37.7,189.6 44.2,206.3 57.3,219.6 C70.5,232.9 86.2,239.6 104.7,239.6 Z" id="Shape"></path>
                        <path d="M251,259.6 L251,90.3 C251,81.8 255.2,77.6 263.7,77.6 L274.5,77.6 C283,77.6 287.2,81.8 287.2,90.3 L287.2,112.6 L286,127.2 L286.8,127.2 C291.7,112.6 299.5,100.4 310.3,90.6 C321.1,80.9 333.1,76 346.5,76 C354.7,76 358.8,80.2 358.8,88.7 L358.8,99.5 C358.8,108 354.2,112.2 344.9,112.2 C326.9,112.2 313,120.3 303,136.4 C293.2,152.3 288.4,170.8 288.4,191.8 L288.4,259.5 C288.4,268 284.2,272.201744 275.7,272.201744 L263.8,272.201744 C255.3,272.3 251,268.1 251,259.6 Z" id="Path"></path>
                        <path d="M413.8,38.1 L400.7,38.1 C392.2,38.1 388,33.9 388,25.4 L388,12.7 C388,4.2 392.2,0 400.7,0 L413.8,0 C422.3,0 426.5,4.2 426.5,12.7 L426.5,25.4 C426.5,33.9 422.3,38.1 413.8,38.1 Z M388.4,259 L388.4,89.7 C388.4,81.2 392.6,77 401.1,77 L413,77 C421.5,77 425.7,81.2 425.7,89.7 L425.7,259 C425.7,267.5 421.5,271.7 413,271.7 L401.1,271.7 C392.7,271.7 388.4,267.5 388.4,259 Z" id="Shape"></path>
                        <path d="M480,259 L480,12.7 C480,4.2 484.2,0 492.7,0 L504.6,0 C512.8,0 516.9,4.2 516.9,12.7 L516.9,148.2 L545,148.2 L592.3,85.1 C595.6,79.7 600.6,77 607.3,77 L621.5,77 C626.6,77 630,78.5 631.5,81.6 C633,84.7 632.3,88.3 629.2,92.4 L575.3,162.8 L575.3,163.6 L637.6,256.3 C640.4,260.7 641,264.3 639.3,267.3 C637.6,270.3 634.2,271.7 629.1,271.7 L613.7,271.7 C607.3,271.7 602.3,268.8 598.7,262.8 L545.6,180.4 L516.7,180.4 L516.7,258.9 C516.7,267.4 512.6,271.6 504.4,271.6 L492.5,271.6 C484.3,271.7 480,267.5 480,259 Z" id="Path"></path>
                    </g>
                </g>
                <g id="Group-2-Copy" transform="translate(21.000000, 21.000000)">
                    <path d="M104.6,271.9 C46.9,271.9 0,225.7 0,169 C0,112.2 46.9,66 104.6,66 L112.3,66 C118.3,66 123.2,70.9 123.2,76.9 L123.2,89 C123.2,95 118.3,99.9 112.3,99.9 L104.6,99.9 C65.6,99.9 33.8,130.9 33.8,169.1 C33.8,207.3 65.6,238.3 104.6,238.3 C140.4,238.3 170.1,212.2 174.8,178.5 C175.5,173.2 180,169.2 185.4,169.2 L197.8,169.2 C204.3,169.2 209.4,174.9 208.6,181.3 C202.5,232.2 158.2,271.9 104.6,271.9 Z" id="Path"></path>
                    <path d="M199.6,140.5 L185.8,140.5 C179.8,140.5 175,135.6 175,129.7 L175,10.8 C175,4.8 179.9,0 185.8,0 L199.6,0 C205.6,0 210.4,4.9 210.4,10.8 L210.4,129.6 C210.4,135.6 205.6,140.5 199.6,140.5 Z" id="Path"></path>
                </g>
            </g>
        </g>
    </g>
</svg>