<svg width="1766" height="636" viewBox="0 0 1766 636" fill="none" xmlns="http://www.w3.org/2000/svg">
<g clip-path="url(#clip0_9_2)">
<path d="M317.2 635.2C492.385 635.2 634.4 493.185 634.4 318C634.4 142.815 492.385 0.799988 317.2 0.799988C142.015 0.799988 0 142.815 0 318C0 493.185 142.015 635.2 317.2 635.2Z" fill="#009BFF"/>
<path d="M815.6 244.4C825.6 245 835.3 241.3 842.3 234.2C848.9 225.9 851.9 215.3 850.9 204.7V78.5H908.2V204.7C909.6 228.8 900.6 252.3 883.5 269.3C864.6 285.2 840.2 293.3 815.5 292C790.8 293.4 766.5 285.3 747.5 269.3C738.751 261.04 731.876 250.998 727.339 239.854C722.802 228.71 720.709 216.722 721.2 204.7V78.5H778.5V204.7C777.8 215.2 781.2 225.6 788 233.7C795.3 241.2 805.3 245.1 815.6 244.4ZM1022.7 292.2C1006.1 292.2 989.7 289.2 974.2 283.4C959 277.9 945.2 269.3 933.4 258.3L961 223.4C969.1 230.8 978.5 236.7 988.6 240.8C999.4 245.1 1010.9 247.3 1022.6 247.1C1029.4 247.5 1036.1 246 1042.1 242.8C1046.6 240.1 1049.3 235.2 1049.1 229.9C1049 224.2 1045.8 219.1 1040.7 216.5C1031.4 211.3 1021.5 207.3 1011.2 204.7L998.3 201.3C982.2 197.8 967.3 190 955.3 178.6C945.4 168.2 940 154.2 940.6 139.9C940.7 127.7 944.5 115.9 951.5 105.9C958.9 95.8 968.9 88 980.5 83.2C994 77.5 1008.6 74.7 1023.3 75C1038.8 75 1054.2 78 1068.6 83.8C1082.8 89.3 1095.9 97.2 1107.3 107.1L1078.8 143.1C1070.9 136.4 1062.1 130.9 1052.7 126.6C1043.5 122 1033.3 119.6 1023 119.6C1016.4 119.2 1009.8 120.6 1004 123.7C999.2 126.2 996.4 131.3 996.8 136.6C997 141.7 999.6 146.4 1003.8 149.3C1011.3 154.1 1019.6 157.5 1028.3 159.3L1043.9 163.6C1061.9 167.3 1078.5 176.1 1091.7 189C1100.9 199.3 1105.9 212.6 1105.7 226.4C1105.9 238.8 1102.3 251 1095.3 261.3C1087.8 271.4 1077.7 279.2 1066.1 284C1052.4 289.7 1037.6 292.5 1022.7 292.2ZM1279.1 288.1L1265.7 250H1187.3L1174.2 289.2H1117.6L1194.4 79.6H1261L1336.7 288H1279.1V288.1ZM1200.7 206.5H1250.3L1226.7 133.1L1200.7 206.5ZM783.7 556.6V393.2H721.4V347.9H902.6V393.2H841V556.5H783.7V556.6ZM1023.1 560.6C1003.6 561 984.3 556.2 967.1 546.8C951.1 537.7 937.8 524.4 928.8 508.3C919.1 491.2 914.2 471.8 914.5 452.1C914.3 437.2 916.9 422.5 922.2 408.6C927.3 395.7 935 384 944.9 374.2C954.8 364.4 966.5 356.7 979.3 351.5C1007.2 340.9 1038.1 340.9 1066.1 351.5C1079 356.7 1090.7 364.4 1100.5 374.2C1110.3 384 1118 395.7 1123.2 408.6C1129.1 422.4 1132.4 437.1 1132.7 452.1C1133.1 471.7 1128.3 491.1 1118.7 508.3C1109.5 524.3 1096.1 537.6 1080 546.6C1062.6 556.3 1043 561.1 1023.1 560.6ZM1023.1 513.3C1032.4 513.5 1041.6 510.8 1049.4 505.6C1057.1 500.2 1063.2 492.7 1067.1 484.1C1071.6 474.1 1073.9 463.2 1073.7 452.2C1073.9 441.2 1071.6 430.3 1067.1 420.3C1063.4 411.3 1057.3 403.4 1049.4 397.6C1033.4 387.1 1012.6 387.1 996.6 397.6C988.7 403.4 982.6 411.2 978.9 420.3C974.4 430.3 972.1 441.2 972.3 452.2C972.1 463.2 974.3 474.1 978.9 484.1C982.7 492.7 988.8 500.2 996.6 505.6C1004.4 510.8 1013.7 513.4 1023.1 513.1V513.3ZM1164.7 556.6V347H1247.4C1266.6 346.6 1285.6 351.2 1302.5 360.4C1318.1 369.1 1331 381.8 1339.9 397.3C1357.9 431.3 1357.9 472 1339.9 506C1331 521.5 1318.1 534.3 1302.5 542.9C1285.6 552.1 1266.6 556.7 1247.4 556.3L1164.7 556.6ZM1221.1 511.3H1247.4C1261.2 511.8 1274.4 505.8 1283 495C1292.1 482.6 1296.8 467.4 1296.1 452C1296.7 436.6 1292.1 421.4 1283 409C1274.4 398.2 1261.2 392.1 1247.4 392.7H1221.1V511.3ZM1522.5 556.6L1509.4 517.4H1430.8L1417.7 556.6H1361.1L1437.9 347H1504.5L1581.3 556.6H1522.5ZM1445.2 475H1495.3L1470.6 401.6L1445.2 475ZM1691.7 481.1V556.5H1633.5V481.1L1559.2 347H1624L1662.7 431.3L1701.2 348.2H1766L1691.7 481.1Z" fill="#404040"/>
</g>
<defs>
<clipPath id="clip0_9_2">
<rect width="1766" height="636" fill="white"/>
</clipPath>
</defs>
</svg>
