<svg width="500px" height="500px" viewBox="0 0 500 500" version="1.1" xmlns="http://www.w3.org/2000/svg" xmlns:xlink="http://www.w3.org/1999/xlink">
    <!-- Generator: Sketch 54.1 (76490) - https://sketchapp.com -->
    <title>Untitled</title>
    <desc>Created with Sketch.</desc>
    <defs>
        <polygon id="path-1" points="0.256136567 -0.000414332524 492.203771 -0.000414332524 492.203771 486.090557 0.256136567 486.090557"></polygon>
    </defs>
    <g id="Page-1" stroke="none" stroke-width="1" fill="none" fill-rule="evenodd">
        <g id="pcmag">
            <rect id="Rectangle" fill="#EB002E" fill-rule="nonzero" x="1" y="0" width="499" height="499"></rect>
            <rect id="Rectangle" fill="#FFFFFF" fill-rule="nonzero" x="31" y="33" width="448" height="459"></rect>
            <path d="M144,124 L144,246 C158.904231,246 165,241.153967 165,224.993186 L165,145.005437 C165,128.846033 158.904231,124 144,124" id="Fill-1" fill="#EB002E" fill-rule="nonzero"></path>
            <g id="Group-5" transform="translate(0.000000, 13.000000)">
                <g id="Fill-3-Clipped">
                    <mask id="mask-2" fill="white">
                        <use xlink:href="#path-1"></use>
                    </mask>
                    <g id="path-1"></g>
                    <path d="M440.445335,209.669995 L364.787076,209.669995 L364.787076,123.72638 C364.787076,115.617893 360.674194,110.75501 352.456834,110.75501 C344.232471,110.75501 340.123791,115.617893 340.123791,123.72638 L340.123791,369.389658 C340.123791,379.120948 344.232471,383.171739 352.456834,383.171739 C360.674194,383.171739 364.787076,379.120948 364.787076,369.389658 L364.787076,274.526846 L440.445335,274.526846 L440.445335,366.148197 C440.445335,407.497202 419.887929,436.689691 355.743218,436.689691 C291.598507,436.689691 260.351249,412.35456 260.351249,366.148197 L260.351249,126.971985 C260.351249,81.5680459 291.598507,57.2425834 355.743218,57.2425834 C419.887929,57.2425834 440.445335,86.4309287 440.445335,126.971985 L440.445335,209.669995 Z M243.902522,220.207852 C243.902522,265.61041 221.699123,289.937254 169.070762,289.937254 L146.86456,289.937254 L146.86456,435.061364 L67.0976214,435.061364 L67.0976214,58.8640047 L169.070762,58.8640047 C221.699123,58.8640047 243.902522,83.1880861 243.902522,128.590644 L243.902522,220.207852 Z M15.3391854,486.090557 L492.203771,486.090557 L492.203771,8.16351481 L15.3391854,8.16351481 L15.3391854,486.090557 Z" id="Fill-3" fill="#EB002E" fill-rule="nonzero" mask="url(#mask-2)"></path>
                </g>
            </g>
        </g>
    </g>
</svg>