<svg width="475" height="90" viewBox="0 0 475 90" fill="none" xmlns="http://www.w3.org/2000/svg">
<path d="M398.893 73.4518C405.778 73.675 412.672 73.8964 419.537 74.5239C421.473 74.698 423.404 74.9072 425.332 75.1562C425.049 75.121 424.77 75.0869 424.489 75.048C431.439 75.9495 438.298 77.4222 444.929 79.71C446.815 80.3573 448.677 81.0668 450.514 81.8349C450.252 81.7241 449.989 81.6171 449.726 81.5063C451.218 82.1289 452.694 82.792 454.149 83.49C454.932 83.866 455.735 84.0486 456.593 83.8123C457.327 83.6119 458.132 83.045 458.494 82.3595C458.882 81.6242 459.08 80.7327 458.816 79.9161C458.575 79.1664 458.099 78.37 457.363 78.0185C453.705 76.2642 449.936 74.719 446.092 73.4176C442.469 72.1873 438.768 71.1874 435.022 70.4025C431.071 69.579 427.071 68.9978 423.061 68.5438C419.284 68.1155 415.497 67.8304 411.706 67.6213C407.887 67.4088 404.067 67.2772 400.248 67.1541C399.782 67.1386 399.312 67.1221 398.846 67.1067C398.067 67.0803 397.184 67.4843 396.637 68.027C396.076 68.578 395.654 69.5028 395.695 70.3042C395.738 71.1105 396.004 71.948 396.615 72.513C397.255 73.1061 398.008 73.4256 398.893 73.4518Z" fill="#FFCC85"/>
<path d="M398.832 47.2495C398.906 47.1396 398.985 47.027 399.066 46.9191C398.898 47.1376 398.731 47.3523 398.563 47.5708C398.868 47.1741 399.224 46.8277 399.621 46.5285C399.407 46.6902 399.193 46.8557 398.975 47.0164C399.498 46.6252 400.076 46.3139 400.679 46.0581C400.428 46.165 400.181 46.2691 399.93 46.3723C401.745 45.622 403.723 45.3655 405.649 45.0787C406.32 44.9789 406.986 44.8818 407.656 44.7895C407.386 44.8268 407.113 44.8631 406.844 44.9003C409.424 44.5457 412.01 44.2454 414.601 43.9993C417.193 43.7531 419.791 43.5612 422.389 43.4263C423.853 43.3484 425.32 43.2914 426.781 43.2533C427.59 43.2308 428.41 42.9073 428.99 42.3329C429.307 42.0409 429.53 41.6951 429.658 41.2917C429.857 40.9113 429.952 40.4987 429.933 40.0557C429.889 39.2494 429.623 38.412 429.016 37.848C428.396 37.2723 427.601 36.8809 426.739 36.9053C424.484 36.97 422.231 37.0717 419.982 37.2191C417.733 37.3665 415.486 37.551 413.243 37.7811C410.738 38.0382 408.241 38.3543 405.748 38.6999C404.636 38.856 403.521 39.0234 402.411 39.2004C401.552 39.3351 400.695 39.4945 399.852 39.7187C399.433 39.8295 399.018 39.9574 398.613 40.1083C397.981 40.3484 397.349 40.6047 396.749 40.9224C396.156 41.242 395.63 41.6482 395.101 42.0621C394.774 42.3149 394.474 42.6034 394.21 42.9219C393.911 43.2798 393.617 43.6509 393.359 44.0399C393.122 44.4101 392.997 44.8146 392.979 45.2475C392.889 45.6573 392.908 46.0717 393.037 46.4833C393.135 46.8905 393.318 47.248 393.594 47.5528C393.819 47.9052 394.115 48.179 394.491 48.381C394.753 48.4918 395.012 48.5977 395.274 48.7085C395.827 48.8565 396.382 48.8554 396.934 48.7032C397.185 48.6001 397.431 48.496 397.682 48.3928C398.163 48.1122 398.548 47.733 398.832 47.2495Z" fill="#FFCC85"/>
<path d="M391.391 15.981C391.366 15.9378 391.345 15.8957 391.325 15.8498C391.431 16.1014 391.535 16.352 391.639 16.5988C391.613 16.5271 391.592 16.4565 391.579 16.3841C391.616 16.6536 391.652 16.9268 391.693 17.1972C391.681 17.1087 391.682 17.028 391.689 16.9407C391.655 17.2194 391.62 17.5019 391.581 17.7834C391.597 17.6782 391.626 17.5846 391.665 17.4855C391.554 17.7477 391.447 18.011 391.336 18.2732C391.396 18.1393 391.469 18.0208 391.556 17.9064C391.389 18.1211 391.221 18.3396 391.05 18.5533C391.214 18.35 391.403 18.1736 391.613 18.0109C391.398 18.1763 391.18 18.3408 390.967 18.5025C391.422 18.1625 391.94 17.9404 392.457 17.7059C393.02 17.4513 393.58 17.2081 394.15 16.9717C393.899 17.0748 393.648 17.1779 393.402 17.282C395.36 16.4648 397.357 15.7432 399.387 15.1276C401.408 14.5138 403.459 14.0012 405.53 13.5953C406.707 13.3634 407.891 13.1657 409.08 12.9976C408.809 13.0387 408.536 13.075 408.266 13.1122C409.79 12.9042 411.32 12.7465 412.854 12.6508C413.277 12.6588 413.674 12.5705 414.041 12.381C414.433 12.2508 414.773 12.0381 415.062 11.7305C415.38 11.4385 415.602 11.0926 415.731 10.6891C415.931 10.305 416.02 9.89521 416.005 9.45325C415.962 8.647 415.696 7.80945 415.085 7.24444C414.481 6.68523 413.66 6.25066 412.808 6.30185C408.938 6.55023 405.074 7.12827 401.305 8.03186C397.522 8.93998 393.866 10.2226 390.299 11.7641C389.846 11.9588 389.399 12.1593 388.95 12.3674C388.727 12.47 388.499 12.5669 388.288 12.6887C387.882 12.9165 387.513 13.219 387.149 13.5026C386.981 13.6318 386.823 13.7678 386.686 13.9299C386.384 14.2706 386.063 14.6385 385.865 15.0598C385.538 15.7629 385.333 16.3161 385.338 17.116C385.339 17.8379 385.545 18.5215 385.895 19.1505C386.095 19.5243 386.368 19.8244 386.712 20.0505C387.024 20.3408 387.398 20.5342 387.822 20.6316C388.237 20.7592 388.654 20.7776 389.073 20.683C389.484 20.6595 389.87 20.5358 390.23 20.312C390.92 19.8724 391.526 19.212 391.706 18.3886C391.742 18.1062 391.781 17.8247 391.816 17.5422C391.811 16.9855 391.667 16.4644 391.391 15.981Z" fill="#FFCC85"/>
<path d="M75.6855 73.4518C68.8005 73.675 61.907 73.8964 55.0413 74.5239C53.1054 74.698 51.175 74.9072 49.2471 75.1562C49.5296 75.121 49.8083 75.0869 50.0897 75.048C43.1393 75.9495 36.2811 77.4222 29.6494 79.71C27.7633 80.3573 25.902 81.0668 24.0645 81.8349C24.3267 81.7241 24.59 81.6171 24.8522 81.5063C23.3609 82.1289 21.8845 82.792 20.4296 83.49C19.6466 83.866 18.8441 84.0486 17.9862 83.8123C17.2514 83.6119 16.4468 83.045 16.0848 82.3595C15.6972 81.6242 15.4988 80.7327 15.7625 79.9161C16.0035 79.1664 16.4793 78.37 17.2162 78.0185C20.8733 76.2642 24.6431 74.719 28.4863 73.4176C32.1094 72.1873 35.8105 71.1874 39.557 70.4025C43.508 69.579 47.5078 68.9978 51.5173 68.5438C55.2945 68.1155 59.0816 67.8304 62.873 67.6213C66.6918 67.4088 70.512 67.2772 74.3304 67.1541C74.7965 67.1386 75.2665 67.1221 75.7326 67.1067C76.512 67.0803 77.3946 67.4843 77.9414 68.027C78.5026 68.578 78.9246 69.5028 78.884 70.3042C78.8405 71.1105 78.5744 71.948 77.9637 72.513C77.3239 73.1061 76.5703 73.4256 75.6855 73.4518Z" fill="#FFCC85"/>
<path d="M75.7471 47.2495C75.673 47.1396 75.5942 47.027 75.5126 46.9191C75.6806 47.1376 75.8476 47.3523 76.0156 47.5708C75.7107 47.1741 75.3543 46.8277 74.958 46.5285C75.1715 46.6902 75.3861 46.8557 75.6035 47.0164C75.0811 46.6252 74.5031 46.3139 73.8995 46.0581C74.1511 46.165 74.3979 46.2691 74.6485 46.3723C72.8339 45.622 70.8557 45.3655 68.9302 45.0787C68.2588 44.9789 67.5923 44.8818 66.9229 44.7895C67.1924 44.8268 67.4656 44.8631 67.7351 44.9003C65.1549 44.5457 62.5689 44.2454 59.9773 43.9993C57.3856 43.7531 54.7882 43.5612 52.1899 43.4263C50.7257 43.3484 49.2591 43.2914 47.7975 43.2533C46.9887 43.2308 46.1683 42.9073 45.5887 42.3329C45.2713 42.0409 45.0488 41.6951 44.9205 41.2917C44.7212 40.9113 44.6269 40.4987 44.6461 40.0557C44.6895 39.2494 44.9556 38.412 45.5626 37.848C46.1827 37.2723 46.9778 36.8809 47.8398 36.9053C50.095 36.97 52.348 37.0717 54.597 37.2191C56.846 37.3665 59.0928 37.551 61.3355 37.7811C63.8409 38.0382 66.3378 38.3543 68.8305 38.6999C69.9426 38.856 71.0577 39.0234 72.1674 39.2004C73.0264 39.3351 73.884 39.4945 74.7266 39.7187C75.1454 39.8295 75.5608 39.9574 75.9661 40.1083C76.598 40.3484 77.2302 40.6047 77.8302 40.9224C78.4226 41.242 78.949 41.6482 79.4775 42.0621C79.8047 42.3149 80.105 42.6034 80.3687 42.9219C80.6673 43.2798 80.9613 43.6509 81.2196 44.0399C81.4566 44.4101 81.5813 44.8146 81.5999 45.2475C81.6895 45.6573 81.6708 46.0717 81.5419 46.4833C81.4442 46.8905 81.2603 47.248 80.9852 47.5528C80.7593 47.9052 80.4638 48.179 80.0882 48.381C79.826 48.4918 79.5665 48.5977 79.3043 48.7085C78.7521 48.8565 78.1963 48.8554 77.6447 48.7032C77.3941 48.6001 77.1473 48.496 76.8967 48.3928C76.4161 48.1122 76.0307 47.733 75.7471 47.2495Z" fill="#FFCC85"/>
<path d="M83.188 15.981C83.2129 15.9378 83.234 15.8957 83.2542 15.8498C83.1473 16.1014 83.0441 16.352 82.94 16.5988C82.9654 16.5271 82.987 16.4565 83 16.3841C82.9628 16.6536 82.9265 16.9268 82.8855 17.1972C82.8982 17.1087 82.8969 17.028 82.8897 16.9407C82.9238 17.2194 82.959 17.5019 82.9979 17.7834C82.9819 17.6782 82.9528 17.5846 82.9141 17.4855C83.0249 17.7477 83.1319 18.011 83.2427 18.2732C83.1825 18.1393 83.1102 18.0208 83.0228 17.9064C83.1898 18.1211 83.3578 18.3396 83.5286 18.5533C83.3646 18.35 83.1755 18.1736 82.9657 18.0109C83.1803 18.1763 83.3986 18.3408 83.6122 18.5025C83.1563 18.1625 82.6386 17.9404 82.1217 17.7059C81.5589 17.4513 80.9992 17.2081 80.4291 16.9717C80.6797 17.0748 80.9302 17.1779 81.1771 17.282C79.2189 16.4648 77.2215 15.7432 75.1916 15.1276C73.1704 14.5138 71.1195 14.0012 69.0485 13.5953C67.8715 13.3634 66.6874 13.1657 65.4991 12.9976C65.7696 13.0387 66.0428 13.075 66.3123 13.1122C64.7889 12.9042 63.2588 12.7465 61.725 12.6508C61.3015 12.6588 60.9049 12.5705 60.5379 12.381C60.1462 12.2508 59.8054 12.0381 59.5162 11.7305C59.1988 11.4385 58.9764 11.0926 58.848 10.6891C58.6478 10.305 58.5583 9.89521 58.5736 9.45325C58.617 8.647 58.8832 7.80945 59.4939 7.24444C60.0982 6.68523 60.9182 6.25066 61.7712 6.30185C65.6405 6.55023 69.5049 7.12827 73.2741 8.03186C77.0567 8.93998 80.7126 10.2226 84.2797 11.7641C84.7332 11.9588 85.1802 12.1593 85.6292 12.3674C85.8513 12.47 86.08 12.5669 86.291 12.6887C86.6966 12.9165 87.0655 13.219 87.4294 13.5026C87.5978 13.6318 87.7559 13.7678 87.8925 13.9299C88.1946 14.2706 88.5162 14.6385 88.7142 15.0598C89.0404 15.7629 89.2454 16.3161 89.2408 17.116C89.2397 17.8379 89.0337 18.5215 88.6833 19.1505C88.4834 19.5243 88.2111 19.8244 87.8663 20.0505C87.5549 20.3408 87.181 20.5342 86.7571 20.6316C86.3413 20.7592 85.9246 20.7776 85.506 20.683C85.0943 20.6595 84.7084 20.5358 84.3485 20.312C83.659 19.8724 83.0523 19.212 82.8723 18.3886C82.8371 18.1062 82.7982 17.8247 82.763 17.5422C82.7679 16.9855 82.9121 16.4644 83.188 15.981Z" fill="#FFCC85"/>
</svg>
